<svg xmlns="http://www.w3.org/2000/svg" xml:space="preserve" width="512" height="512" id="network">
  <linearGradient id="a" x1="256" x2="256" y1="515" y2="8.604" gradientUnits="userSpaceOnUse">
    <stop offset=".103" style="stop-color:#662d91"></stop>
    <stop offset=".179" style="stop-color:#6f308a"></stop>
    <stop offset=".304" style="stop-color:#893878"></stop>
    <stop offset=".463" style="stop-color:#b2465b"></stop>
    <stop offset=".647" style="stop-color:#ea5832"></stop>
    <stop offset=".69" style="stop-color:#f85d28"></stop>
    <stop offset=".99" style="stop-color:#ed1c24"></stop>
  </linearGradient>
  <path fill="url(#a)" d="M466.256 221.254c-2.31 0-4.565.231-6.75.664l-35.513-85.732c9.294-6.241 15.422-16.847 15.422-28.86 0-19.159-15.583-34.745-34.741-34.745-12.013 0-22.619 6.129-28.862 15.423l-85.733-35.512c.432-2.184.663-4.439.663-6.749 0-19.159-15.583-34.741-34.741-34.741S221.26 26.585 221.26 45.743c0 2.31.231 4.566.663 6.751l-85.736 35.512c-6.24-9.295-16.846-15.425-28.859-15.425-19.159 0-34.741 15.586-34.741 34.745 0 12.013 6.128 22.618 15.421 28.859l-35.512 85.732a34.8 34.8 0 0 0-6.751-.664c-19.159 0-34.741 15.583-34.741 34.742s15.582 34.745 34.741 34.745c2.311 0 4.567-.232 6.753-.664l35.509 85.734c-9.293 6.241-15.42 16.846-15.42 28.859 0 19.159 15.582 34.741 34.741 34.741 12.013 0 22.618-6.128 28.859-15.421l85.737 35.513a34.7 34.7 0 0 0-.664 6.754c0 19.159 15.582 34.741 34.741 34.741s34.741-15.583 34.741-34.741c0-2.311-.231-4.568-.664-6.754l85.733-35.513c6.242 9.293 16.85 15.421 28.863 15.421 19.158 0 34.741-15.583 34.741-34.741 0-12.013-6.128-22.618-15.421-28.859l35.514-85.732a34.7 34.7 0 0 0 6.748.663c19.159 0 34.742-15.586 34.742-34.745s-15.583-34.742-34.742-34.742M404.674 86.189c11.65 0 21.133 9.482 21.133 21.137 0 11.65-9.482 21.133-21.133 21.133-11.654 0-21.137-9.482-21.137-21.133 0-11.654 9.483-21.137 21.137-21.137M256 24.61c11.65 0 21.133 9.483 21.133 21.133S267.651 66.876 256 66.876s-21.133-9.483-21.133-21.133S244.35 24.61 256 24.61M107.326 86.189c11.65 0 21.133 9.482 21.133 21.137 0 11.65-9.482 21.133-21.133 21.133s-21.133-9.482-21.133-21.133c0-11.654 9.483-21.137 21.133-21.137M24.61 255.996c0-11.65 9.482-21.133 21.133-21.133 11.654 0 21.137 9.482 21.137 21.133 0 11.654-9.482 21.137-21.137 21.137-11.65 0-21.133-9.483-21.133-21.137m82.716 169.807c-11.65 0-21.133-9.482-21.133-21.133s9.482-21.133 21.133-21.133 21.133 9.482 21.133 21.133-9.482 21.133-21.133 21.133M256 487.39c-11.65 0-21.133-9.482-21.133-21.133 0-11.654 9.482-21.137 21.133-21.137s21.133 9.483 21.133 21.137c0 11.65-9.483 21.133-21.133 21.133m148.674-61.587c-11.654 0-21.137-9.482-21.137-21.133s9.482-21.133 21.137-21.133c11.65 0 21.133 9.482 21.133 21.133s-9.483 21.133-21.133 21.133m6.754-55.211a35 35 0 0 0-6.754-.664c-19.159 0-34.746 15.583-34.746 34.742 0 2.311.231 4.567.664 6.753l-85.732 35.512c-6.241-9.294-16.847-15.424-28.859-15.424-12.014 0-22.618 6.129-28.859 15.424l-85.737-35.513c.433-2.186.664-4.442.664-6.752 0-19.159-15.583-34.742-34.741-34.742-2.311 0-4.568.232-6.754.664l-35.51-85.733c9.296-6.242 15.426-16.849 15.426-28.863s-6.131-22.62-15.426-28.861l35.511-85.731c2.186.432 4.442.664 6.753.664 19.158 0 34.741-15.583 34.741-34.742 0-2.311-.231-4.567-.664-6.753l85.736-35.512c6.24 9.294 16.847 15.423 28.86 15.423s22.62-6.129 28.861-15.425l85.73 35.51a35 35 0 0 0-.664 6.756c0 19.159 15.587 34.742 34.746 34.742 2.311 0 4.566-.232 6.752-.664l35.512 85.73c-9.296 6.241-15.427 16.847-15.427 28.862s6.132 22.623 15.429 28.865zm54.828-93.459c-11.654 0-21.137-9.482-21.137-21.137 0-11.65 9.482-21.133 21.137-21.133 11.65 0 21.134 9.482 21.134 21.133 0 11.654-9.484 21.137-21.134 21.137"></path>
  <linearGradient id="b" x1="256" x2="256" y1="515" y2="8.516" gradientUnits="userSpaceOnUse">
    <stop offset=".103" style="stop-color:#662d91"></stop>
    <stop offset=".179" style="stop-color:#6f308a"></stop>
    <stop offset=".304" style="stop-color:#893878"></stop>
    <stop offset=".463" style="stop-color:#b2465b"></stop>
    <stop offset=".647" style="stop-color:#ea5832"></stop>
    <stop offset=".69" style="stop-color:#f85d28"></stop>
    <stop offset=".99" style="stop-color:#ed1c24"></stop>
  </linearGradient>
  <path fill="url(#b)" d="M381.115 236.465a126 126 0 0 0-2.442-11.9c18.75-4.923 21.906-10.55 21.906-16.033 0-9.051-10.771-14.687-36.983-19.215-22.363-35.953-62.229-59.94-107.596-59.94-45.369 0-85.235 23.989-107.598 59.944-26.215 4.532-36.986 10.164-36.986 19.211 0 5.482 3.157 11.11 21.911 16.034a126 126 0 0 0-2.442 11.898c-24.541 4.787-34.667 10.557-34.667 19.532 0 6.721 4.613 13.666 34.668 19.542a126 126 0 0 0 2.441 11.889c-15.456 4.013-21.911 8.839-21.911 16.033 0 6.708 4.748 13.633 36.991 19.221 22.364 35.952 62.228 59.938 107.593 59.938s85.23-23.987 107.594-59.939c32.239-5.588 36.985-12.512 36.985-19.22 0-7.193-6.453-12.02-21.906-16.032a126 126 0 0 0 2.441-11.89c30.055-5.875 34.668-12.821 34.668-19.542 0-8.975-10.125-14.745-34.667-19.531m-12.1 19.531c0 2.645-.099 5.267-.278 7.867-11.115 1.745-24.721 3.333-40.52 4.573.244-4.093.371-8.243.371-12.44 0-8.119-.47-16.059-1.367-23.755 9.769-.837 18.89-1.853 27.16-3.035 3.992-.571 7.633-1.16 10.977-1.764a112.9 112.9 0 0 1 3.657 28.554m-171.999 0c0-7.764.376-15.369 1.269-22.737 15.861 1.036 32.716 1.64 50.716 1.762v36.029c-19-.118-36.065-.723-51.613-1.665-.31-4.399-.372-8.867-.372-13.389M263 145.382c23 8.275 41.257 37.261 48.665 74.427-14.223.897-30.665 1.488-48.665 1.605zm-14 .001v76.032c-18-.118-34.444-.708-48.668-1.605C207.741 182.644 226 153.659 249 145.383m0 139.274v31.686c-15-.101-29.597-.545-42.248-1.232-3.533-9.811-6.268-20.583-7.932-31.99 15.867.903 33.18 1.428 50.18 1.536m0 45.292v36.667c-14-5.258-27.216-18.874-36.474-37.63 11.696.548 24.474.877 36.474.963m14 36.668v-36.668c12-.086 24.777-.415 36.472-.962-9.257 18.756-22.472 32.371-36.472 37.63m0-50.275v-31.686c17-.108 34.262-.632 50.127-1.536-1.664 11.407-4.3 22.178-7.832 31.989-12.651.688-27.295 1.133-42.295 1.233m0-45.292v-36.029c18-.122 34.852-.726 50.711-1.762.893 7.368 1.317 14.974 1.317 22.737 0 4.521-.085 8.99-.396 13.39-15.546.942-32.632 1.547-51.632 1.664m121.149-62.467c-2.222.956-5.421 1.981-9.565 3.02q-1.29-3.435-2.771-6.772c6.177 1.43 10.004 2.745 12.336 3.752m-23.069 5.813c-9.459 1.639-21.418 3.184-35.905 4.408-5.515-29.224-17.392-53.958-33.222-69.954 31.539 10.61 56.902 34.78 69.127 65.546m-141.035-65.545c-15.831 15.996-27.709 40.73-33.225 69.954-14.485-1.223-26.442-2.768-35.9-4.406 12.223-30.768 37.587-54.938 69.125-65.548m-92.195 59.736c2.332-1.007 6.16-2.322 12.336-3.751a126 126 0 0 0-2.771 6.771c-4.144-1.039-7.343-2.064-9.565-3.02m29.764 20.619c8.271 1.183 17.392 2.198 27.159 3.035a206 206 0 0 0-1.366 23.755c0 4.197.126 8.347.371 12.439-15.797-1.239-29.4-2.828-40.515-4.572a112.768 112.768 0 0 1 3.379-36.42c3.342.603 6.983 1.192 10.972 1.763m-45.731 26.869c2.619-1.315 7.775-3.282 17.615-5.421a128 128 0 0 0-.121 5.342c0 1.8.047 3.59.122 5.372-8.343-1.76-14.305-3.58-17.616-5.293m34.987 22.13c11.415 1.633 24.303 2.974 38.208 4.007 1.458 11.271 3.84 21.989 7.02 31.94-13.856-1.05-25.575-2.395-35.186-3.857a112.2 112.2 0 0 1-11.779-32.348c.581.086 1.142.173 1.737.258m-19.016 25.31c1.963-.847 4.99-1.914 9.579-3.083q1.29 3.434 2.772 6.771c-5.535-1.265-9.652-2.527-12.351-3.688m38.966 21.82c9.369 1.124 19.6 2.057 30.474 2.783 6.006 13.985 13.739 25.92 22.751 35.026-21.259-7.152-39.71-20.467-53.225-37.809m125.134 37.811c9.011-9.107 16.743-21.042 22.749-35.027 10.875-.727 21.107-1.66 30.477-2.784-13.515 17.342-31.967 30.658-53.226 37.811m92.188-59.631c-2.698 1.161-6.813 2.423-12.347 3.688a126 126 0 0 0 2.772-6.77c4.587 1.169 7.613 2.235 9.575 3.082m-29.054 6.781c-9.611 1.462-21.331 2.807-35.189 3.857 3.18-9.951 5.561-20.67 7.019-31.941 13.906-1.034 26.796-2.375 38.213-4.007.595-.085 1.156-.172 1.737-.257a112.2 112.2 0 0 1-11.78 32.348m27.413-48.929c.075-1.782.122-3.571.122-5.371 0-1.79-.047-3.569-.121-5.342 9.839 2.139 14.996 4.105 17.61 5.421-3.31 1.712-9.27 3.532-17.611 5.292"></path>
</svg>
